{"title":"Ceviz Kabugu 07.09.2012 Abdullatif Sener","uid":7639730,"size":728135642,"categoryP":"audio","categoryS":"other","magnet":"?xt=urn:btih:38d995bc3f22d4e38e937c1f9487f7107ffbd4a3&amp;dn=Ceviz+Kabugu+07.09.2012+Abdullatif+Sener&amp;tr=udp%3A%2F%2Ftracker.openbittorrent.com%3A80&amp;tr=udp%3A%2F%2Fopen.demonii.com%3A1337&amp;tr=udp%3A%2F%2Ftracker.coppersurfer.tk%3A6969&amp;tr=udp%3A%2F%2Fexodus.desync.com%3A6969","seeders":1,"leechers":0,"uploader":"tata64","files":2,"time":1347746408,"description":"Ceviz Kabugu - Karadeniz TV - 07.09.2012 - Konuk Abdullatif Sener\n\nComplete name              : Ceviz.Kabugu.07.09.2012.Abdullatif.Sener.mkv\nFormat                     : Matroska\nFormat version             : Version 2\nFile size                  : 694 MiB\nDuration                   : 3h 25mn\nOverall bit rate           : 473 Kbps\nEncoded date               : UTC 2012-09-08 15:22:36\nWriting application        : mkvmerge v5.6.0 ('Kenya Kane') built on May 27 2012 16:44:04\nWriting library            : libebml v1.2.3 + libmatroska v1.3.0\n\nVideo\nID                         : 1\nFormat                     : AVC\nFormat/Info                : Advanced Video Codec\nFormat profile             : &lt;a class=&quot;__cf_email__&quot; href=&quot;/cdn-cgi/l/email-protection&quot; data-cfemail=&quot;9ad2f3fdf2dad6a9b4aa&quot;&gt;[email&amp;#160;protected]&lt;/a&gt;&lt;script cf-hash='f9e31' type=&quot;text/javascript&quot;&gt;\n/* &lt;![CDATA[ */!function(){try{var t=&quot;currentScript&quot;in document?document.currentScript:function(){for(var t=document.getElementsByTagName(&quot;script&quot;),e=t.length;e--;)if(t[e].getAttribute(&quot;cf-hash&quot;))return t[e]}();if(t&amp;&amp;t.previousSibling){var e,r,n,i,c=t.previousSibling,a=c.getAttribute(&quot;data-cfemail&quot;);if(a){for(e=&quot;&quot;,r=parseInt(a.substr(0,2),16),n=2;a.length-n;n+=2)i=parseInt(a.substr(n,2),16)^r,e+=String.fromCharCode(i);e=document.createTextNode(e),c.parentNode.replaceChild(e,c)}}}catch(u){}}();/* ]]&gt; */&lt;/script&gt;\nFormat settings, CABAC     : Yes\nFormat settings, ReFrames  : 4 frames\nCodec ID                   : V_MPEG4/ISO/AVC\nDuration                   : 3h 25mn\nBit rate                   : 336 Kbps\nWidth                      : 720 pixels\nHeight                     : 544 pixels\nDisplay aspect ratio       : 4:3\nFrame rate mode            : Constant\nFrame rate                 : 25.000 fps\nColor space                : YUV\nChroma subsampling         : 4:2:0\nBit depth                  : 8 bits\nScan type                  : Progressive\nBits/(Pixel*Frame)         : 0.034\nStream size                : 493 MiB (71%)\nWriting library            : x264 core 125 r2200 999b753\nDefault                    : Yes\nForced                     : No\n\nAudio\nID                         : 2\nFormat                     : MPEG Audio\nFormat version             : Version 1\nFormat profile             : Layer 3\nMode                       : Joint stereo\nMode extension             : MS Stereo\nCodec ID                   : A_MPEG/L3\nCodec ID/Hint              : MP3\nDuration                   : 3h 25mn\nBit rate mode              : Constant\nBit rate                   : 128 Kbps\nChannel(s)                 : 2 channels\nSampling rate              : 48.0 KHz\nCompression mode           : Lossy\nStream size                : 188 MiB (27%)\nWriting library            : LAME3.99r\nEncoding settings          : -m j -V 4 -q 2 -lowpass 17 -b 128\nDefault                    : Yes\nForced                     : No\n","torrent":{"xt":"urn:btih:38d995bc3f22d4e38e937c1f9487f7107ffbd4a3","amp;dn":"Ceviz+Kabugu+07.09.2012+Abdullatif+Sener","amp;tr":["udp%3A%2F%2Ftracker.openbittorrent.com%3A80","udp%3A%2F%2Fopen.demonii.com%3A1337","udp%3A%2F%2Ftracker.coppersurfer.tk%3A6969","udp%3A%2F%2Fexodus.desync.com%3A6969"],"infoHash":"38d995bc3f22d4e38e937c1f9487f7107ffbd4a3","infoHashBuffer":{"type":"Buffer","data":[56,217,149,188,63,34,212,227,142,147,124,31,148,135,247,16,127,251,212,163]},"announce":[],"urlList":[]}}